<?xml version="1.0" encoding="UTF-8"?>
<svg width="700pt" height="700pt" version="1.1" fill="#ffffff" viewBox="0 0 700 550" xmlns="http://www.w3.org/2000/svg" xmlns:xlink="http://www.w3.org/1999/xlink">

 <g>
  <path d="m294.5 439.38c-123.7 0-224.5-98.504-224.5-219.69s100.8-219.69 224.5-219.69 224.5 98.559 224.5 219.69-100.69 219.69-224.5 219.69zm0-380.8c-90.719 0-164.53 72.406-164.53 161.39 0 88.988 73.809 160.84 164.53 160.84s164.53-72.129 164.53-161.11-73.809-161.34-164.53-161.34z"/>
  <path d="m600.77 476.95-148.91-128.41c-7.8633 5.1406-16.531 8.9297-25.648 11.199l126.39 168.9c22.398 29.848 53.703 40.266 69.664 23.07 15.957-17.191 6.3281-50.789-21.504-74.758z"/>
 </g>
</svg>
